<?xml version="1.0" encoding="UTF-8"?>
<svg viewBox="0 0 1200 1200" xmlns="http://www.w3.org/2000/svg">
 <rect x="-120" y="-120" width="1440" height="1440" fill="#1f3d2a"/>
 <path d="m600 243.13c-196.39 0-356.07 160.09-356.07 356.87s159.68 356.84 356.07 356.84 356.07-160.06 356.07-356.84c0-196.81-159.68-356.87-356.07-356.87zm0 46.848h0.03125c12.754 0 25.891 5.668 40.176 19.543 14.316 13.902 28.637 35.836 40.914 64.031 22.375 51.395 37.699 123.07 40.234 203.04h-242.68c2.5391-79.969 17.859-151.67 40.234-203.04 12.25-28.164 26.598-50.125 40.914-64.031 14.316-13.902 27.426-19.543 40.207-19.543zm-97.418 15.645c-9.8906 14.523-18.746 31.055-26.656 49.27-25.684 59.012-41.652 136.18-44.133 221.7h-140.07c9.418-127.05 94.789-232.5 210.86-270.99zm194.86 0c116.1 38.496 201.54 143.94 210.95 270.99h-140.16c-2.4805-85.547-18.449-162.71-44.133-221.7-7.9414-18.215-16.77-34.746-26.656-49.27zm-405.73 317.82h140.07c2.4805 85.516 18.449 162.68 44.133 221.7 7.9414 18.215 16.77 34.746 26.656 49.238-116.04-38.496-201.44-143.91-210.86-270.96zm186.95 0h242.68c-2.5391 79.969-17.859 151.64-40.234 203.01-12.25 28.164-26.598 50.125-40.914 64.031-14.316 13.902-27.426 19.57-40.207 19.57s-25.891-5.668-40.207-19.57c-14.316-13.902-28.637-35.836-40.914-64.031-22.375-51.395-37.699-123.04-40.234-203.01zm289.56 0h140.16c-9.418 127.03-94.879 232.47-210.95 270.96 9.8906-14.523 18.746-31.027 26.656-49.238 25.684-59.012 41.652-136.18 44.133-221.7z" fill="#d6a639"/>
</svg>
