<?xml version="1.0" encoding="UTF-8"?>
<svg viewBox="0 0 1200 1200" xmlns="http://www.w3.org/2000/svg">
 <defs>
  <clipPath id="a">
   <path d="m222.14 422h755.71v356h-755.71z"/>
  </clipPath>
 </defs>
 <rect x="-120" y="-120" width="1440" height="1440" fill="#e84e36"/>
 <g clip-path="url(#a)">
  <path d="m377.73 444.41c0-12.277 9.9492-22.227 22.227-22.227 12.273 0 22.227 9.9492 22.227 22.227v255.61c0 44.883-46.078 77.793-100.02 77.793-53.941 0-100.02-32.91-100.02-77.793 0-44.883 46.078-77.793 100.02-77.793 20.32 0 39.523 4.668 55.57 12.887zm155.59 277.84c0 12.273-9.9492 22.227-22.227 22.227-12.273 0-22.227-9.9531-22.227-22.227v-233.38c0-12.277 9.9531-22.227 22.227-22.227 12.277 0 22.227 9.9492 22.227 22.227zm177.82-88.906c0 12.273-9.9531 22.227-22.227 22.227-12.277 0-22.227-9.9531-22.227-22.227v-55.57c0-12.273 9.9492-22.227 22.227-22.227 12.273 0 22.227 9.9531 22.227 22.227zm-88.906 44.453c0 12.273-9.9531 22.227-22.23 22.227-12.273 0-22.227-9.9531-22.227-22.227v-144.48c0-12.273 9.9531-22.227 22.227-22.227 12.277 0 22.23 9.9531 22.23 22.227zm177.81 44.453c0 12.273-9.9492 22.227-22.227 22.227-12.273 0-22.227-9.9531-22.227-22.227v-233.38c0-12.277 9.9531-22.227 22.227-22.227 12.277 0 22.227 9.9492 22.227 22.227zm177.82-88.906c0 12.273-9.9531 22.227-22.227 22.227-12.277 0-22.227-9.9531-22.227-22.227v-55.57c0-12.273 9.9492-22.227 22.227-22.227 12.273 0 22.227 9.9531 22.227 22.227zm-88.906 44.453c0 12.273-9.9531 22.227-22.23 22.227-12.273 0-22.227-9.9531-22.227-22.227v-144.48c0-12.273 9.9531-22.227 22.227-22.227 12.277 0 22.23 9.9531 22.23 22.227z" fill="#1e3989"/>
 </g>
</svg>
