<?xml version="1.0" encoding="UTF-8"?>
<svg viewBox="0 0 1200 1200" xmlns="http://www.w3.org/2000/svg">
 <rect x="-120" y="-120" width="1440" height="1440" fill="#e84e36"/>
 <path d="m352.8 773.66c54.789 77.754 145.09 128.62 247.2 128.62 102.11 0 192.41-50.863 247.2-128.62 0.82812-0.91406 1.5938-1.9766 2.1836-3.1016 33.328-48.59 52.898-107.39 52.898-170.62 0-63.262-19.57-122.03-52.898-170.62-0.58984-1.1211-1.3594-2.125-2.1836-3.1016-54.789-77.633-145.09-128.5-247.2-128.5-102.11 0-192.41 50.863-247.2 128.62-0.82812 0.91406-1.5938 1.9766-2.1836 3.1016-33.328 48.59-52.898 107.39-52.898 170.62 0 63.262 19.57 122.03 52.898 170.62 0.67969 1.0039 1.3594 2.0664 2.1836 2.9805zm51.629 6.1992h94.699c8.7695 30.141 19.867 56.68 33.328 77.227-49.891-13.078-94.02-40.355-128.03-77.227zm283.07-161.66c-1.1211 46.555-6.582 89.09-14.82 125.28h-145.38c-8.2344-36.191-13.668-78.668-14.82-125.28zm-174.99-36.426c1.1211-46.555 6.582-89.09 14.82-125.28h145.32c8.2344 36.191 13.668 78.668 14.82 125.28zm87.496 284.07c-22.141 0-45.637-32.5-62.789-85.992h125.61c-17.18 53.488-40.68 85.992-62.82 85.992zm67.57-8.6797c13.461-20.547 24.562-47.086 33.328-77.227h94.699c-34.035 36.781-78.172 64.059-128.03 77.227zm156.04-113.68h-113.74c8.2344-39.23 12.988-82.305 14.051-125.28h141.25c-3.1016 45.934-17.977 88.645-41.562 125.28zm0-287c23.586 36.664 38.375 79.352 41.477 125.28h-141.17c-1.0625-42.922-5.8164-85.992-14.051-125.28zm-28.043-36.367h-94.758c-8.7695-30.141-19.867-56.68-33.328-77.227 49.949 13.078 94.078 40.355 128.09 77.227zm-195.57-85.992c22.141 0 45.637 32.5 62.789 85.992h-125.58c17.152-53.488 40.648-85.992 62.789-85.992zm-67.57 8.6797c-13.461 20.547-24.562 47.086-33.328 77.227l-94.668 0.03125c34.008-36.812 78.141-64.09 128-77.258zm-156.04 113.68h113.74c-8.2344 39.23-12.988 82.305-14.051 125.28h-141.25c3.1016-45.934 17.977-88.645 41.562-125.28zm99.688 161.71c1.0625 42.922 5.8164 85.992 14.051 125.28h-113.74c-23.586-36.664-38.375-79.352-41.477-125.28z" fill="#1e3989"/>
</svg>
