<?xml version="1.0" encoding="UTF-8"?>
<svg viewBox="0 0 1200 1200" xmlns="http://www.w3.org/2000/svg">
 <rect x="-120" y="-120" width="1440" height="1440" fill="#e84e36"/>
 <path d="m526.14 488.41c6.375 0 11.512 3.957 11.512 7.1445v208.89c0 3.957-5.1641 7.1445-11.512 7.1445-6.375 0-11.512-3.957-11.512-7.1445v-208.89c0-3.957 5.1641-7.1445 11.512-7.1445z" fill="#1e3989" fill-rule="evenodd"/>
 <path d="m747.49 422.38c6.375 0 11.512 6.4062 11.512 11.602v331.98c0 6.4062-5.1641 11.602-11.512 11.602-6.375 0-11.512-6.4062-11.512-11.602v-331.98c0-6.4062 5.1641-11.602 11.512-11.602z" fill="#1e3989" fill-rule="evenodd"/>
 <path d="m452.64 396.19c6.375 0 11.512 7.2305 11.512 13.078v381.28c0 7.2305-5.1641 13.078-11.512 13.078-6.375 0-11.512-7.2305-11.512-13.078v-381.28c0-7.2305 5.1641-13.078 11.512-13.078z" fill="#1e3989" fill-rule="evenodd"/>
 <path d="m599.91 528.59c6.375 0 11.512 2.6289 11.512 4.7539v132.99c0 2.6289-5.1641 4.7539-11.512 4.7539-6.375 0-11.512-2.6289-11.512-4.7539v-132.99c0-2.6289 5.1641-4.7539 11.512-4.7539z" fill="#1e3989" fill-rule="evenodd"/>
 <path d="m673.71 357.82c6.375 0 11.512 8.707 11.512 15.762v452.72c0 8.707-5.1641 15.762-11.512 15.762-6.375 0-11.512-8.707-11.512-15.762v-452.72c0-8.707 5.1641-15.762 11.512-15.762z" fill="#1e3989" fill-rule="evenodd"/>
</svg>
