<?xml version="1.0" encoding="UTF-8"?>
<svg viewBox="0 0 1200 1200" xmlns="http://www.w3.org/2000/svg">
 <rect x="-120" y="-120" width="1440" height="1440" fill="#1f3d2a"/>
 <path d="m600 267.49c-137.55 0-249.38 111.83-249.38 249.39 0 58.121 19.965 111.51 53.371 153.98l-89.27 163.66c-1.7031 3.1953-2.207 6.8945-1.418 10.426 0.79297 3.5312 2.8242 6.6641 5.7266 8.8242 2.9062 2.1602 6.4883 3.207 10.098 2.9492l80.297-6.6094 33.297 73.445c1.6016 3.5078 4.4805 6.2695 8.0508 7.7266 3.5703 1.4531 7.5625 1.4883 11.16 0.09375 3.5938-1.3906 6.5234-4.1055 8.1836-7.5859l77.934-162.95c16.727 3.5508 34.18 5.4297 51.953 5.4297 17.875 0 35.137-2.0781 51.957-5.668l77.934 163.19c1.6602 3.4805 4.5859 6.1953 8.1836 7.5859 3.5938 1.3945 7.5859 1.3594 11.16-0.09375 3.5703-1.457 6.4492-4.2188 8.0508-7.7266l33.297-73.445 80.297 6.6094c3.6094 0.25781 7.1914-0.78906 10.098-2.9492 2.9023-2.1602 4.9336-5.293 5.7266-8.8242 0.78906-3.5312 0.28516-7.2305-1.418-10.426l-89.27-163.89c33.363-42.43 53.371-95.711 53.371-153.74 0-137.55-111.83-249.39-249.39-249.39zm0 30.227c121.22 0 219.16 97.941 219.16 219.16 0 121.21-97.941 219.16-219.16 219.16-121.21 0-219.16-97.941-219.16-219.16 0-121.22 97.941-219.16 219.16-219.16zm0 45.344c-95.812 0-173.81 78-173.81 173.82 0 95.812 78 173.81 173.81 173.81 95.816 0 173.82-78 173.82-173.81 0-95.816-78-173.82-173.82-173.82zm0 30.23c79.48 0 143.59 64.105 143.59 143.59 0 79.477-64.105 143.58-143.59 143.58-79.477 0-143.59-64.105-143.59-143.58 0-79.48 64.109-143.59 143.59-143.59zm174.52 321.18 70.848 129.89-62.816-5.1953c-3.0742-0.23828-6.1484 0.47266-8.8086 2.0352s-4.7773 3.9023-6.0703 6.7031l-24.324 53.605-61.875-129.18c35.266-12.266 66.953-32.207 93.047-57.859zm-349.28 0.23828c26.105 25.664 57.98 45.621 93.285 57.859l-61.875 128.94-24.324-53.605c-1.293-2.8008-3.4102-5.1406-6.0703-6.7031-2.6602-1.5625-5.7344-2.2734-8.8086-2.0352l-62.82 5.1953z" fill="#d6a639"/>
</svg>
